 http://img3.imageshack.us/img3/7537/d8b758.png

Country.......: USA
Genre.........: Action, Thriller, Horror, Sci-Fi
Date release..: 03.03.2011 [World]
Director......: Scott Charles Stewart
Writers.......: Cory Goodman, Min Woo Hyung
Duration......: 87 min.
More..........: http://www.imdb.com/title/tt0822847
Trailer.......: http://www.imdb.com/video/imdb/vi4157250841
Trailer.......:

Pilot :
A priest disobeys church law to track down the vampires who kidnapped his niece.

Cats :
Paul Bettany   ...   Priest
Karl Urban ... Black Hat
Cam Gigandet ... Hicks
Maggie Q ... Priestess
Lily Collins ... Lucy Pace
Brad Dourif ... Salesman
Stephen Moyer ... Owen Pace
Christopher Plummer ... Monsignor Orelas
Alan Dale ... Monsignor Chamberlain
Madchen Amick ... Shannon Pace
Jacob Hopkins ... Boy
Dave Florek ... Crocker
Joel Polinsky ... Dr. Tomlin
Josh Wingate ... Familiar
Jon Braver ... Familiar

Data Technical :
!!! SAMPLE !!!
Audio.....: English
Subtitles.: Polish .txt
Format                           : AVI
Format/Info                      : Audio Video Interleave
File size                        : 1.49 GiB
Duration                         : 1h 27mn
Overall bit rate                 : 2 440 Kbps
Writing library                  : VirtualDub build 30586/release
Video
ID                               : 0
Format                           : MPEG-4 Visual
Format profile                   : Advanced Simple@L5
Format settings, BVOP            : Yes
Format settings, QPel            : No
Format settings, GMC             : No warppoints
Format settings, Matrix          : Default (MPEG)
Muxing mode                      : Packed bitstream
Codec ID                         : XVID
Codec ID/Hint                    : XviD
Duration                         : 1h 27mn
Bit rate                         : 1 791 Kbps
Width                            : 720 pixels
Height                           : 304 pixels
Display aspect ratio             : 2.35:1
Frame rate                       : 23.976 fps
Color space                      : YUV
Chroma subsampling               : 4:2:0
Bit depth                        : 8 bits
Scan type                        : Progressive
Bits/(Pixel*Frame)               : 0.341
Stream size                      : 1.09 GiB (73%)
Writing library                  : XviD 64
Audio
ID                               : 1
Format                           : AC-3
Format/Info                      : Audio Coding 3
Mode extension                   : CM (complete main)
Codec ID                         : 2000
Duration                         : 1h 27mn
Bit rate mode                    : Constant
Bit rate                         : 640 Kbps
Channel(s)                       : 6 channels
Channel positions                : Front: L C R, Side: L R, LFE
Sampling rate                    : 48.0 KHz
Bit depth                        : 16 bits
Stream size                      : 400 MiB (26%)
Alignment                        : Aligned on interleaves
Interleave, duration             : 42 ms (1.00 video frame)
Interleave, preload duration     : 512 ms

Screen : 
http://img811.imageshack.us/img811/1381/priest2011s1.jpg 
http://img64.imageshack.us/img64/6907/priest2011s2.jpg 
http://img21.imageshack.us/img21/7376/priest2011s3.jpg 
http://img21.imageshack.us/img21/4316/priest2011s4.jpg 
http://img820.imageshack.us/img820/1124/priest2011s5.jpg